<svg xmlns="http://www.w3.org/2000/svg" viewBox="0 0 256 256" width="256" height="256">
  <defs>
    <linearGradient id="bg" x1="0%" y1="0%" x2="0%" y2="100%">
      <stop offset="0%" style="stop-color:#0a1628"/>
      <stop offset="100%" style="stop-color:#1a0a3e"/>
    </linearGradient>
    <linearGradient id="dome" x1="0%" y1="0%" x2="0%" y2="100%">
      <stop offset="0%" style="stop-color:#00c896"/>
      <stop offset="100%" style="stop-color:#00a078"/>
    </linearGradient>
  </defs>
  <rect width="256" height="256" rx="48" fill="url(#bg)"/>
  <rect x="60" y="160" width="136" height="60" rx="4" fill="#00c896" opacity="0.9"/>
  <ellipse cx="128" cy="120" rx="60" ry="55" fill="url(#dome)"/>
  <circle cx="128" cy="62" r="8" fill="#f0b040"/>
  <circle cx="131" cy="60" r="7" fill="url(#bg)"/>
  <rect x="42" y="100" width="18" height="120" rx="3" fill="#00c896" opacity="0.85"/>
  <ellipse cx="51" cy="98" rx="12" ry="14" fill="#00c896" opacity="0.9"/>
  <circle cx="51" cy="82" r="5" fill="#f0b040"/>
  <circle cx="53" cy="81" r="4" fill="url(#bg)"/>
  <rect x="196" y="100" width="18" height="120" rx="3" fill="#00c896" opacity="0.85"/>
  <ellipse cx="205" cy="98" rx="12" ry="14" fill="#00c896" opacity="0.9"/>
  <circle cx="205" cy="82" r="5" fill="#f0b040"/>
  <circle cx="207" cy="81" r="4" fill="url(#bg)"/>
  <rect x="112" y="170" width="32" height="50" rx="16" fill="#0a1628" opacity="0.6"/>
  <ellipse cx="85" cy="175" rx="10" ry="14" fill="#0a1628" opacity="0.5"/>
  <ellipse cx="171" cy="175" rx="10" ry="14" fill="#0a1628" opacity="0.5"/>
</svg>
